<svg version="1.1" viewBox="0.0 0.0 505.20472440944883 258.62992125984255" fill="none" stroke="none" stroke-linecap="square" stroke-miterlimit="10" xmlns:xlink="http://www.w3.org/1999/xlink" xmlns="http://www.w3.org/2000/svg"><clipPath id="p.0"><path d="m0 0l505.2047 0l0 258.6299l-505.2047 0l0 -258.6299z" clip-rule="nonzero"/></clipPath><g clip-path="url(#p.0)"><path fill="#000000" fill-opacity="0.0" d="m0 0l505.2047 0l0 258.6299l-505.2047 0z" fill-rule="evenodd"/><path fill="#000000" fill-opacity="0.0" d="m18.986877 26.296587l500.5039 0l0 174.51968l-500.5039 0z" fill-rule="evenodd"/><path fill="#ffffff" d="m69.39943 236.89635q-1.78125 -1.921875 -3.640625 -3.59375q-1.859375 -1.65625 -3.578125 -3.1875q-1.734375 -1.53125 -3.40625 -2.8125l0 -1.15625q0.765625 -1.15625 2.3125 -3.015625q1.53125 -1.84375 3.265625 -3.828125q1.71875 -1.984375 3.265625 -3.46875q1.53125 -1.46875 2.296875 -1.84375l1.15625 0q3.203125 1.921875 5.375 3.578125q2.171875 1.671875 3.328125 3.453125q2.296875 -2.8125 5.109375 -5.828125q2.828125 -3.0 3.96875 -3.640625l1.03125 0q5.125 3.203125 7.609375 5.6875q2.5 2.5 2.5 5.0625q0 2.4375 -2.5625 5.4375q-2.5625 3.015625 -7.671875 6.71875l-1.15625 0q-2.171875 -2.171875 -4.21875 -4.03125q-2.046875 -1.84375 -3.96875 -3.390625q-1.796875 4.09375 -9.859375 9.859375l-1.15625 0zm6.403366 -35.079132q-8.453125 0 -14.859375 -4.09375q-6.390625 -4.09375 -9.984375 -11.453125q-3.578125 -7.359375 -3.578125 -16.828125q0 -6.90625 1.859375 -16.0625q1.859375 -9.15625 6.40625 -20.03125q4.546875 -10.890625 12.609375 -22.53125l3.328125 1.921875q-6.015625 10.5 -9.15625 17.921875q-3.140625 7.421875 -4.234375 12.921875q-1.078125 5.5 -1.078125 10.375q0 5.25 1.59375 9.78125q1.609375 4.546875 4.9375 7.9375q3.328125 3.390625 8.3125 5.3125q5.0 1.921875 11.78125 1.921875q8.828125 0 15.921875 -2.953125q7.109375 -2.9375 12.09375 -7.359375q5.0 -4.40625 7.6875 -8.765625q2.703125 -4.34375 2.703125 -7.03125q0 -2.5625 -2.375 -4.484375q-2.375 -1.921875 -8.765625 -4.484375q-7.046875 -2.8125 -7.046875 -10.359375q0 -2.8125 1.21875 -7.15625q1.21875 -4.359375 3.328125 -9.484375q2.109375 -5.125 4.796875 -10.171875q2.6875 -5.0625 5.515625 -9.40625q1.90625 -2.953125 3.828125 -5.5q1.921875 -2.5625 3.96875 -4.796875q2.046875 -2.25 4.09375 -4.046875q2.046875 -1.796875 4.03125 -3.0q1.984375 -1.21875 4.03125 -1.921875q2.0625 -0.703125 3.96875 -0.703125q5.765625 0 5.765625 3.578125q0 0.515625 -0.203125 1.15625q-0.1875 0.640625 -0.4375 1.40625l-6.140625 14.078125l-1.15625 0.25q-0.515625 -0.640625 -1.546875 -0.828125q-1.015625 -0.1875 -2.421875 -0.1875q-3.0625 0 -6.78125 2.109375q-3.71875 2.109375 -7.171875 5.4375q-3.453125 3.328125 -5.625 6.984375q-2.171875 3.640625 -2.171875 6.59375q0 1.40625 0.5625 2.625q0.578125 1.203125 1.671875 2.359375q1.09375 1.15625 2.75 2.125q1.671875 0.953125 3.96875 1.84375q3.84375 1.40625 5.5625 3.515625q1.734375 2.109375 1.734375 6.21875q0 5.109375 -1.859375 12.671875q-1.859375 7.546875 -5.703125 15.859375q-3.828125 8.328125 -9.59375 15.75q-5.109375 6.65625 -11.328125 11.390625q-6.203125 4.734375 -12.984375 7.15625q-6.78125 2.4375 -13.828125 2.4375zm72.58002 -38.90625l-0.515625 -2.9375q3.203125 -1.796875 7.171875 -4.609375q3.96875 -2.8125 8.0625 -6.140625q4.09375 -3.328125 7.921875 -6.65625q3.84375 -3.328125 6.78125 -6.265625q2.953125 -2.953125 4.625 -4.875q1.53125 -1.796875 3.125 -4.671875q1.609375 -2.875 3.265625 -6.515625q1.671875 -3.65625 3.265625 -7.75q1.609375 -4.109375 3.140625 -8.203125l3.84375 0.640625q-2.4375 10.109375 -5.1875 18.3125q-2.75 8.1875 -5.640625 14.390625q-2.875 6.203125 -5.828125 10.5q-2.9375 4.28125 -5.75 6.46875q-1.40625 0.765625 -3.390625 1.53125q-1.984375 0.765625 -4.484375 1.53125q-2.484375 0.765625 -5.625 1.59375q-3.140625 0.84375 -6.859375 1.734375q-3.703125 0.90625 -7.921875 1.921875zm91.26488 -4.734375q-9.484375 0 -13.90625 -7.234375q-4.40625 -7.234375 -4.40625 -21.3125q0 -10.625 0.453125 -20.734375q0.453125 -10.109375 1.078125 -18.625q0.640625 -8.515625 1.40625 -14.71875q0.78125 -6.203125 1.421875 -9.015625q0.515625 -2.1875 1.21875 -4.421871q0.703125 -2.234375 1.53125 -4.671875q0.828125 -2.4375 1.859375 -4.859375l2.6875 0.765625q-0.765625 4.34375 -1.28125 9.921875q-0.515625 5.562496 -0.90625 12.343746q-0.375 6.78125 -0.578125 14.71875q-0.1875 7.9375 -0.1875 17.15625q0 4.859375 0.3125 10.171875q0.328125 5.3125 1.796875 9.921875q1.484375 4.609375 4.734375 7.5q3.265625 2.875 9.03125 2.875q2.8125 0 4.15625 1.796875q1.34375 1.78125 1.34375 5.5q0 4.859375 -1.921875 7.671875q-1.90625 2.8125 -4.671875 4.03125q-2.75 1.21875 -5.171875 1.21875zm-0.13287354 0q-1.796875 0 -3.0 -0.828125q-1.21875 -0.828125 -1.796875 -2.484375q-0.578125 -1.671875 -0.578125 -3.984375q0 -4.734375 1.859375 -7.546875q1.859375 -2.8125 4.609375 -4.09375q2.75 -1.28125 5.3125 -1.28125q3.828125 0 6.90625 -1.46875q3.078125 -1.484375 5.3749847 -4.421875l4.359375 -5.765625q1.015625 -1.40625 2.296875 -2.109375q1.28125 -0.703125 2.9375 -0.703125q1.546875 0 2.890625 0.453125q1.34375 0.4375 2.625 1.015625q1.28125 0.578125 2.2969055 0.96875q2.5625 -3.46875 5.125 -6.71875q2.5625 -3.265625 5.125 -6.21875q5.5 -6.53125 11.0625 -11.453125q5.5625 -4.921875 11.265625 -7.734375q5.703125 -2.828125 11.453125 -2.828125q4.609375 0 7.109375 2.375q2.5 2.359375 2.5 5.953125q0 4.46875 -1.984375 9.40625q-1.984375 4.921875 -4.9375 9.53125q-2.9375 4.609375 -6.078125 8.203125q-3.140625 3.578125 -5.4375 5.5q-5.5 4.734375 -12.796875 7.75q-7.296875 3.0 -14.859375 3.0q-4.21875 0 -8.1875305 -1.015625q-3.96875 -1.03125 -7.421875 -3.46875q-1.28125 -0.890625 -2.3125 -1.265625q-1.015625 -0.390625 -1.78125 -0.390625q-0.640625 0 -1.671875 0.765625q-0.890625 0.765625 -3.96875 5.5q-1.65625 2.6875 -3.4531097 5.25q-1.78125 2.5625 -3.703125 4.609375q-2.3125 2.421875 -5.0 3.96875q-2.6875 1.53125 -6.140625 1.53125zm45.70314 -30.078125q5.625 0 11.3125 -1.40625q5.703125 -1.40625 10.5625 -3.640625q4.875 -2.25 7.8125 -4.9375q2.953125 -2.6875 2.953125 -5.25q0 -2.5625 -2.765625 -4.03125q-2.75 -1.46875 -6.078125 -1.46875q-7.03125 0 -13.625 4.9375q-6.59375 4.921875 -14.28125 15.28125q1.15625 0.25 2.171875 0.390625q1.03125 0.125 1.9375 0.125zm72.309265 -71.42987q-1.78125 -1.78125 -3.578125 -3.4375q-1.796875 -1.671875 -3.515625 -3.203125q-1.734375 -1.546875 -3.53125 -2.828125l0 -1.15625q0.765625 -1.28125 2.3125 -3.125q1.53125 -1.859375 3.265625 -3.78125q1.71875 -1.921875 3.265625 -3.390625q1.53125 -1.46875 2.296875 -1.984375l1.15625 0q5.890625 3.703125 7.9375 6.203125q2.046875 2.5 2.046875 4.671875q0 2.171875 -2.625 5.25q-2.625 3.078125 -8.0 6.78125l-1.03125 0zm-74.4924 86.020004q-2.4375 0 -3.703125 -0.765625q-1.28125 -0.765625 -1.28125 -2.171875q0 -1.28125 0.828125 -2.046875q0.828125 -0.78125 3.390625 -0.78125q6.53125 0 14.53125 -1.078125q8.0 -1.09375 16.125 -3.140625q8.125 -2.046875 15.21875 -5.046875q7.109375 -3.015625 11.84375 -6.734375q3.203125 -2.546875 5.703125 -5.75q2.5 -3.203125 3.390625 -7.171875q0.390625 -1.671875 0.578125 -4.15625q0.1875 -2.5 0.3125 -5.828125q0.140625 -2.6875 0.640625 -5.4375q0.515625 -2.75 1.546875 -5.578125q1.015625 -2.8125 2.484375 -5.6875q1.484375 -2.875 3.53125 -5.703125l2.6875 0.90625q-0.390625 2.046875 -0.71875 4.21875q-0.3125 2.171875 -0.5625 6.53125q-0.390625 5.765625 -0.78125 9.921875q-0.375 4.15625 -1.203125 7.484375q-0.828125 3.328125 -2.625 6.78125q-2.8125 5.765625 -8.1875 11.203125q-5.375 5.4375 -11.265625 8.515625q-4.875 2.5625 -12.6875 5.25q-7.796875 2.6875 -17.84375 4.484375q-10.046875 1.78125 -21.953125 1.78125zm94.596405 -88.57889q-2.046875 0 -3.265625 -1.078125q-1.21875 -1.09375 -1.21875 -3.140625q0 -2.5625 1.15625 -4.984375q1.140625 -2.4375 2.8125 -4.109375l2.171875 0.515625q0 1.53125 0.78125 2.375q0.765625 0.828125 1.65625 0.828125q1.28125 0 2.4375 -0.953125q1.140625 -0.96875 2.8125 -3.40625l4.34375 -6.53125q2.6875 -3.953127 4.734375 -5.546877q2.046875 -1.609375 4.359375 -1.609375q1.53125 0 2.9375 0.828125q1.40625 0.828125 1.40625 3.390625q0 2.437502 -1.15625 4.875002q-1.140625 2.421875 -2.8125 4.21875l-2.046875 -0.515625q0 -1.796875 -0.828125 -2.5625q-0.828125 -0.765625 -1.71875 -0.765625q-1.28125 0 -2.375 0.90625q-1.09375 0.890625 -2.75 3.3125q-1.03125 1.671875 -2.171875 3.34375q-1.15625 1.65625 -2.1875 3.3125q-4.734375 7.296875 -9.078125 7.296875zm5.753235 102.91063l-2.8125 -0.640625q0.640625 -2.8125 1.21875 -8.828125q0.578125 -6.015625 0.953125 -15.359375l1.28125 -31.875q0.25 -5.25 0.5625 -9.40625q0.328125 -4.15625 1.28125 -8.4375q0.96875 -4.296875 3.078125 -9.921875q2.125 -5.640625 5.828125 -13.828121l2.6875 1.015625q-1.140625 2.5625 -1.859375 8.906246q-0.703125 6.328125 -1.34375 16.4375l-2.046875 36.609375q-0.5 8.328125 -2.6875 17.15625q-2.171875 8.828125 -6.140625 18.171875zm9.609741 8.703125q-1.921875 -0.125 -5.0 -1.28125q-3.078125 -1.140625 -5.890625 -2.6875q-2.8125 -1.53125 -4.21875 -2.8125l0.640625 -2.421875q3.453125 -0.390625 8.515625 -1.46875q5.046875 -1.09375 10.109375 -3.78125q5.046875 -2.6875 8.640625 -7.5625q1.28125 -1.78125 1.921875 -3.4375q0.640625 -1.671875 0.953125 -4.421875q0.328125 -2.765625 0.453125 -7.75l1.40625 -35.453125q0.25 -6.15625 0.625 -10.75q0.390625 -4.609375 1.34375 -8.953125q0.96875 -4.359375 2.765625 -9.546871q1.796875 -5.1875 4.859375 -12.484375l2.8125 0.890625q-0.5 2.1875 -0.953125 5.453125q-0.453125 3.265625 -0.84375 8.453121q-0.375 5.171875 -0.828125 13.109375q-0.4375 7.9375 -0.828125 19.578125q-0.25 9.21875 -1.40625 18.765625q-1.15625 9.53125 -3.328125 17.96875q-1.53125 6.15625 -3.640625 11.40625q-2.109375 5.234375 -5.0625 9.078125q-1.65625 2.171875 -3.765625 4.28125q-2.125 2.125 -4.421875 3.65625q-2.3125 1.53125 -4.859375 2.171875zm53.630615 -20.46875l-2.828125 -0.640625q0.640625 -2.953125 1.28125 -9.34375q0.640625 -6.40625 1.03125 -15.625l1.15625 -30.59375q0.25 -5.75 0.5625 -10.09375q0.328125 -4.359375 1.34375 -8.640625q1.03125 -4.296875 3.140625 -9.796871q2.109375 -5.515625 5.703125 -13.578125l2.6875 1.03125q-1.03125 2.5625 -1.734375 9.03125q-0.703125 6.453125 -1.34375 16.812496l-2.171875 36.109375q-0.515625 8.1875 -2.625 17.015625q-2.109375 8.828125 -6.203125 18.3125z" fill-rule="nonzero"/></g></svg>