<svg width="24" height="24" viewBox="0 0 24 24">
  <path fill-rule="evenodd" d="M2 12C2 6.477 6.477 2 12 2s10 4.477 10 10-4.477 10-10 10A10 10 0 012 12zm14.86-6.09A7.726 7.726 0 0012 4.2c-.57 0-1.12.07-1.66.18.66.87 1.66 2.29 2.69 4.27 1.47-.65 2.81-1.51 3.83-2.74zM8.55 5c.55.65 1.63 2.06 2.79 4.25-2.34.71-4.73.87-6.16.87h-.13c-.24 0-.45 0-.62-.01C5 7.87 6.5 6 8.55 5zM4.2 11.89V12c0 1.91.7 3.66 1.84 5 .41-.61 1.12-1.54 2.15-2.5 1.08-.97 2.54-1.96 4.4-2.58-.15-.36-.3-.7-.45-1.03-2.78.87-5.52 1-7.08 1.01h-.01c-.34 0-.63 0-.85-.01zm12.22 6.53A57.5 57.5 0 0015 13.17c.5-.07 1-.11 1.58-.11h.02c.93 0 1.95.12 3.06.37a7.788 7.788 0 01-3.24 4.99zM12 19.8c-1.74 0-3.34-.57-4.64-1.54.28-.45.87-1.32 1.82-2.22.96-.93 2.32-1.89 4.05-2.46.59 1.67 1.13 3.57 1.54 5.71-.86.33-1.77.51-2.77.51zm6.13-12.62a7.823 7.823 0 011.66 4.45 15.32 15.32 0 00-3.19-.35h-.01c-.8 0-1.55.07-2.26.19l-.027-.067c-.16-.395-.313-.774-.493-1.143 1.58-.69 3.09-1.68 4.32-3.08z"/>
</svg>
