<svg width="256" height="256" viewbox="0 0 16 16" xmlns="http://www.w3.org/2000/svg">
  <path d="M0 0h256v256H0V0zm131.323 108.027l.014-.005 44.115 83.943a3.818 3.818 0 0 0 1.997 1.775 3.798 3.798 0 0 0 4.92-2.198l15.385-40.165a3.86 3.86 0 0 0-.181-3.122l-36.286-69.846C156.049 68.327 145.66 62 134.327 62H113.45c-.608 0-1.225.15-1.77.442-1.86.983-2.56 3.29-1.588 5.157l16.475 31.347-16.589 41.648L77.663 78.41C72.426 68.327 62.037 62 50.704 62H29.827c-.636 0-1.226.15-1.802.442-1.86.983-2.555 3.29-1.593 5.157l65.387 124.37c.409.81 1.135 1.444 1.997 1.776a3.805 3.805 0 0 0 4.92-2.194l32.587-83.524zm86.468-8.485l.004.005 11.972-32.476A3.767 3.767 0 0 0 226.242 62h-29.494A3.755 3.755 0 0 0 193 65.764c0 .629.148 1.244.448 1.797l17.518 32.457a3.744 3.744 0 0 0 5.09 1.527 3.746 3.746 0 0 0 1.735-2.003z"/>
</svg>
