<svg aria-hidden="true" fill="currentColor" width="135" height="765" viewBox="0 0 135 765">
  <path d="M32.544 651.088l1.152.288c.576.144 1.008.288 1.44.432l3.744.864c46.224 11.808 75.312 36.864 95.76 82.656-9.648 4.752-15.12 8.784-24.192 18.144-11.952-38.304-37.44-64.224-70.992-72.432v60.192c.144 15.264.288 18.72.864 23.76H14.4c.864-5.472 1.152-9.504 1.152-24.192v-73.44C6.624 666.928 0 660.016 0 651.232c0-9.072 7.2-16.272 16.272-16.272s16.128 7.056 16.272 16.128zm-24.48.144c0 4.464 3.744 8.208 8.208 8.208 4.32 0 8.064-3.744 8.064-8.208s-3.744-8.208-8.064-8.208c-4.464 0-8.208 3.744-8.208 8.208zm111.024-104.528v61.776h9.936v26.208c-7.92-.864-12.816-1.152-23.472-1.152H31.536c-6.192 0-10.656.144-16.56.576.432-5.04.576-7.92.576-17.424v-77.616c0-8.928 0-11.088-.576-17.856 5.04.288 10.224.432 16.992.432h73.008c11.088 0 18-.288 23.76-1.008v26.064h-9.648zm-23.04 0H38.592v61.776h57.456v-61.776zM12.96 403.44l12.528-12.96c2.448 1.584 3.168 1.872 8.064 3.024 26.784 6.48 44.784 15.12 61.2 28.944 15.984 13.392 27.504 29.52 39.168 54.864-10.944 5.616-14.832 8.64-24.192 18.144-6.768-20.736-15.552-35.856-28.224-48.528-12.24-12.096-25.344-19.44-42.624-23.904v59.76c0 13.968.144 16.56.864 24.192H13.68c1.008-6.192 1.152-10.512 1.152-24.624v-68.4c0-4.752-.432-7.344-1.872-10.512zm13.968-106.112l13.824-20.16c1.584 1.872 1.584 1.872 5.04 5.04 8.64 7.776 16.272 16.56 23.472 26.64h44.352c9.36 0 14.688-.144 19.872-.864v25.632c-5.616-.72-9.36-1.008-19.872-1.008H83.52c7.344 12.24 9.36 16.848 16.992 37.584-7.92 3.168-13.392 6.48-20.448 12.24-6.192-22.176-15.12-41.328-27.36-58.32-8.784-12.24-18.432-22.32-25.776-26.784zm55.584-35.264H54.72c1.008-6.768 1.296-14.544 1.296-29.52v-68.832c0-14.4-.288-19.872-1.296-29.52h27.792c-.72 6.912-.864 13.248-.864 29.664V232.4c0 16.128.144 20.88.864 29.664zM8.352 113.76l1.584-27.216c4.896.576 4.896.576 33.408 1.584 30.096.864 46.08 3.744 61.776 10.656 10.656 4.752 18.432 10.224 28.8 20.016-9.648 7.344-13.68 11.376-20.16 20.592-7.344-8.208-13.392-12.672-22.896-17.136-14.112-6.768-31.968-9.072-69.264-9.072-6.336 0-9.504.144-13.248.576zm-.72-40.896V45.792c5.904.864 8.208 1.008 16.704 1.152l75.456.72c-4.896-7.776-9.072-12.384-15.84-17.28-7.344-5.184-14.832-8.64-24.624-11.232C68.256 11.952 72 8.208 78.336 0c16.128 6.48 27.216 13.968 36.576 24.912 7.344 8.64 11.088 15.696 16.416 30.24 1.44 4.032 1.872 5.184 3.024 7.056l-12.96 12.384c-3.744-1.296-6.192-1.584-12.096-1.584l-85.248-.72h-5.184c-4.608 0-7.776.144-11.232.576z" />
</svg>
